M48
; DRILL file {KiCad 9.0.2} date 2025-09-28T22:02:56+0100
; FORMAT={-:-/ absolute / metric / decimal}
; #@! TF.CreationDate,2025-09-28T22:02:56+01:00
; #@! TF.GenerationSoftware,Kicad,Pcbnew,9.0.2
; #@! TF.FileFunction,Plated,1,2,PTH
FMAT,2
METRIC
; #@! TA.AperFunction,Plated,PTH,ViaDrill
T1C0.800
%
G90
G05
T1
X-65.531Y0.0
X-61.531Y0.0
X-57.531Y0.0
X-53.531Y0.0
X-49.531Y0.0
X-45.531Y0.0
X-41.531Y0.0
X-37.531Y0.0
X-33.531Y0.0
X0.0Y65.5
X0.0Y61.5
X0.0Y57.5
X0.0Y53.5
X0.0Y49.5
X0.0Y45.5
X0.0Y41.5
X0.0Y37.5
X0.0Y33.5
X0.0Y-33.529
X0.0Y-37.529
X0.0Y-41.529
X0.0Y-45.529
X0.0Y-49.529
X0.0Y-53.529
X0.0Y-57.529
X0.0Y-61.529
X0.0Y-65.529
X33.531Y0.0
X37.531Y0.0
X41.531Y0.0
X45.531Y0.0
X49.531Y0.0
X53.531Y0.0
X57.531Y0.0
X61.531Y0.0
X65.531Y0.0
M30
