M48
; DRILL file {KiCad 9.0.2} date 2025-09-28T22:01:15+0100
; FORMAT={-:-/ absolute / metric / decimal}
; #@! TF.CreationDate,2025-09-28T22:01:15+01:00
; #@! TF.GenerationSoftware,Kicad,Pcbnew,9.0.2
; #@! TF.FileFunction,Plated,1,2,PTH
FMAT,2
METRIC
; #@! TA.AperFunction,Plated,PTH,ViaDrill
T1C0.800
; #@! TA.AperFunction,Plated,PTH,ViaDrill
T2C1.200
%
G90
G05
T1
X45.936Y-88.265
X49.936Y-88.265
X53.936Y-88.265
X57.936Y-88.265
X61.936Y-88.265
X65.936Y-88.265
X69.936Y-88.265
X73.936Y-88.265
X77.936Y-88.265
X111.467Y-22.765
X111.467Y-26.765
X111.467Y-30.765
X111.467Y-34.765
X111.467Y-38.765
X111.467Y-42.765
X111.467Y-46.765
X111.467Y-50.765
X111.467Y-54.765
X111.467Y-121.794
X111.467Y-125.794
X111.467Y-129.794
X111.467Y-133.794
X111.467Y-137.794
X111.467Y-141.794
X111.467Y-145.794
X111.467Y-149.794
X111.467Y-153.794
X144.998Y-88.265
X148.998Y-88.265
X152.998Y-88.265
X156.998Y-88.265
X160.998Y-88.265
X164.998Y-88.265
X168.998Y-88.265
X172.998Y-88.265
X176.998Y-88.265
T2
X64.456Y-41.254
X64.501Y-135.358
X67.284Y-44.082
X67.329Y-132.53
X70.112Y-46.91
X70.158Y-129.701
X72.941Y-49.739
X72.986Y-126.873
X75.769Y-52.567
X75.814Y-124.045
X78.598Y-55.396
X78.643Y-121.216
X81.426Y-58.224
X81.471Y-118.388
X84.255Y-61.053
X84.3Y-115.559
X87.083Y-63.881
X87.128Y-112.731
X135.806Y-64.053
X136.084Y-112.755
X138.634Y-61.225
X138.912Y-115.583
X141.463Y-58.396
X141.74Y-118.411
X144.291Y-55.568
X144.569Y-121.24
X147.12Y-52.739
X147.397Y-124.068
X149.948Y-49.911
X150.226Y-126.897
X152.776Y-47.083
X153.054Y-129.725
X155.605Y-44.254
X155.883Y-132.554
X158.433Y-41.426
X158.711Y-135.382
M30
