M48
; DRILL file {KiCad 9.0.2} date 2025-07-16T11:30:57+0100
; FORMAT={-:-/ absolute / metric / decimal}
; #@! TF.CreationDate,2025-07-16T11:30:57+01:00
; #@! TF.GenerationSoftware,Kicad,Pcbnew,9.0.2
; #@! TF.FileFunction,Plated,1,2,PTH
FMAT,2
METRIC
; #@! TA.AperFunction,Plated,PTH,ComponentDrill
T1C0.800
; #@! TA.AperFunction,Plated,PTH,ViaDrill
T2C1.000
; #@! TA.AperFunction,Plated,PTH,ComponentDrill
T3C1.000
; #@! TA.AperFunction,Plated,PTH,ComponentDrill
T4C1.100
%
G90
G05
T1
X70.609Y-29.991
X73.061Y-42.231
X73.061Y-44.231
X73.149Y-29.991
X75.061Y-42.231
X75.061Y-44.231
X77.061Y-42.231
X77.061Y-44.231
T2
X39.37Y-52.07
X39.37Y-74.93
X45.72Y-44.45
X45.72Y-67.31
X46.99Y-90.17
X48.26Y-29.21
X60.96Y-29.21
X82.55Y-31.75
X82.55Y-44.45
X82.55Y-57.15
X82.55Y-74.93
T3
X35.56Y-29.21
X36.83Y-34.29
X36.83Y-36.83
X36.83Y-39.37
X36.83Y-41.91
X36.83Y-57.15
X36.83Y-59.69
X36.83Y-62.23
X36.83Y-64.77
X36.83Y-80.01
X36.83Y-82.55
X36.83Y-85.09
X36.83Y-87.63
X38.1Y-29.21
X43.18Y-28.829
X43.18Y-31.369
X43.18Y-33.909
X43.18Y-36.449
X43.18Y-38.989
X43.18Y-41.529
X43.18Y-44.069
X43.18Y-46.609
X43.18Y-52.07
X43.18Y-54.61
X43.18Y-57.15
X43.18Y-59.69
X43.18Y-62.23
X43.18Y-64.77
X43.18Y-67.31
X43.18Y-69.85
X43.18Y-74.93
X43.18Y-77.47
X43.18Y-80.01
X43.18Y-82.55
X43.18Y-85.09
X43.18Y-87.63
X43.18Y-90.17
X43.18Y-92.71
X50.8Y-46.609
X50.8Y-69.85
X50.8Y-92.71
X53.34Y-46.609
X53.34Y-69.85
X53.34Y-92.71
X55.88Y-28.829
X55.88Y-31.369
X55.88Y-33.909
X55.88Y-36.449
X55.88Y-38.989
X55.88Y-41.529
X55.88Y-44.069
X55.88Y-46.609
X55.88Y-52.07
X55.88Y-54.61
X55.88Y-57.15
X55.88Y-59.69
X55.88Y-62.23
X55.88Y-64.77
X55.88Y-67.31
X55.88Y-69.85
X55.88Y-74.93
X55.88Y-77.47
X55.88Y-80.01
X55.88Y-82.55
X55.88Y-85.09
X55.88Y-87.63
X55.88Y-90.17
X55.88Y-92.71
X86.36Y-29.21
X86.36Y-31.75
X86.36Y-36.83
X86.36Y-39.37
X86.36Y-41.91
X86.36Y-44.45
X86.36Y-49.53
X86.36Y-52.07
X86.36Y-54.61
X86.36Y-57.15
X86.36Y-67.31
X86.36Y-69.85
X86.36Y-72.39
X86.36Y-74.93
T4
X64.259Y-29.261
X64.259Y-31.801
X64.259Y-34.341
X64.259Y-36.881
X64.259Y-39.421
X64.259Y-41.961
X64.259Y-44.501
X64.259Y-47.041
X64.259Y-49.581
X64.259Y-52.121
X64.259Y-54.661
X64.259Y-57.201
X64.259Y-59.741
X64.259Y-62.281
X64.259Y-64.821
X64.259Y-67.361
X64.259Y-69.901
X64.259Y-72.441
X64.259Y-74.981
X64.259Y-77.521
X64.259Y-80.061
X64.259Y-82.601
X64.259Y-85.141
X64.259Y-87.681
X66.799Y-74.981
X67.31Y-35.56
X67.31Y-38.1
X67.31Y-40.64
X67.31Y-43.18
X67.31Y-45.72
X69.339Y-74.981
X71.879Y-74.981
X74.419Y-74.981
X76.959Y-31.801
X76.959Y-74.981
X79.499Y-29.261
X79.499Y-31.801
X79.499Y-34.341
X79.499Y-36.881
X79.499Y-39.421
X79.499Y-41.961
X79.499Y-44.501
X79.499Y-47.041
X79.499Y-49.581
X79.499Y-52.121
X79.499Y-54.661
X79.499Y-57.201
X79.499Y-59.741
X79.499Y-62.281
X79.499Y-64.821
X79.499Y-67.361
X79.499Y-69.901
X79.499Y-72.441
X79.499Y-74.981
X79.499Y-77.521
X79.499Y-80.061
X79.499Y-82.601
X79.499Y-85.141
X79.499Y-87.681
M30
