M48
; DRILL file {KiCad 9.0.2} date 2025-09-28T22:14:50+0100
; FORMAT={-:-/ absolute / metric / decimal}
; #@! TF.CreationDate,2025-09-28T22:14:50+01:00
; #@! TF.GenerationSoftware,Kicad,Pcbnew,9.0.2
; #@! TF.FileFunction,Plated,1,2,PTH
FMAT,2
METRIC
; #@! TA.AperFunction,Plated,PTH,ViaDrill
T1C0.800
%
G90
G05
T1
X-101.469Y0.0
X-97.469Y0.0
X-93.469Y0.0
X-89.469Y0.0
X-85.469Y0.0
X-81.469Y0.0
X-77.469Y0.0
X-73.469Y0.0
X-69.469Y0.0
X-65.531Y0.0
X-61.531Y0.0
X-57.531Y0.0
X-53.531Y0.0
X-49.531Y0.0
X-45.531Y0.0
X-41.531Y0.0
X-37.531Y0.0
X-33.531Y0.0
X0.0Y101.469
X0.0Y97.469
X0.0Y93.469
X0.0Y89.469
X0.0Y85.469
X0.0Y81.469
X0.0Y77.469
X0.0Y73.469
X0.0Y69.469
X0.0Y65.5
X0.0Y61.5
X0.0Y57.5
X0.0Y53.5
X0.0Y49.5
X0.0Y45.5
X0.0Y41.5
X0.0Y37.5
X0.0Y33.5
X0.0Y-33.529
X0.0Y-37.529
X0.0Y-41.529
X0.0Y-45.529
X0.0Y-49.529
X0.0Y-53.529
X0.0Y-57.529
X0.0Y-61.529
X0.0Y-65.529
X0.0Y-69.469
X0.0Y-73.469
X0.0Y-77.469
X0.0Y-81.469
X0.0Y-85.469
X0.0Y-89.469
X0.0Y-93.469
X0.0Y-97.469
X0.0Y-101.469
X33.531Y0.0
X37.531Y0.0
X41.531Y0.0
X45.531Y0.0
X49.531Y0.0
X53.531Y0.0
X57.531Y0.0
X61.531Y0.0
X65.531Y0.0
X69.535Y0.0
X73.535Y0.0
X77.535Y0.0
X81.535Y0.0
X85.535Y0.0
X89.535Y0.0
X93.535Y0.0
X97.535Y0.0
X101.535Y0.0
M30
