%TF.GenerationSoftware,KiCad,Pcbnew,9.0.2*%
%TF.CreationDate,2025-09-28T22:13:22+01:00*%
%TF.ProjectId,XY_pogo-ring,58595f70-6f67-46f2-9d72-696e672e6b69,rev?*%
%TF.SameCoordinates,Original*%
%TF.FileFunction,Copper,L1,Top*%
%TF.FilePolarity,Positive*%
%FSLAX46Y46*%
G04 Gerber Fmt 4.6, Leading zero omitted, Abs format (unit mm)*
G04 Created by KiCad (PCBNEW 9.0.2) date 2025-09-28 22:13:22*
%MOMM*%
%LPD*%
G01*
G04 APERTURE LIST*
%TA.AperFunction,Conductor*%
%ADD10C,3.000000*%
%TD*%
%TA.AperFunction,ViaPad*%
%ADD11C,2.000000*%
%TD*%
%TA.AperFunction,ViaPad*%
%ADD12C,1.600000*%
%TD*%
G04 APERTURE END LIST*
D10*
%TO.N,2*%
X38500000Y0D02*
G75*
G02*
X-38500000Y0I-38500000J0D01*
G01*
X-38500000Y0D02*
G75*
G02*
X38500000Y0I38500000J0D01*
G01*
%TO.N,8*%
X62500000Y0D02*
G75*
G02*
X-62500000Y0I-62500000J0D01*
G01*
X-62500000Y0D02*
G75*
G02*
X62500000Y0I62500000J0D01*
G01*
%TO.N,16*%
X94500000Y0D02*
G75*
G02*
X-94500000Y0I-94500000J0D01*
G01*
X-94500000Y0D02*
G75*
G02*
X94500000Y0I94500000J0D01*
G01*
%TO.N,12*%
X78500000Y0D02*
G75*
G02*
X-78500000Y0I-78500000J0D01*
G01*
X-78500000Y0D02*
G75*
G02*
X78500000Y0I78500000J0D01*
G01*
%TO.N,4*%
X46500000Y0D02*
G75*
G02*
X-46500000Y0I-46500000J0D01*
G01*
X-46500000Y0D02*
G75*
G02*
X46500000Y0I46500000J0D01*
G01*
%TO.N,5*%
X50500000Y0D02*
G75*
G02*
X-50500000Y0I-50500000J0D01*
G01*
X-50500000Y0D02*
G75*
G02*
X50500000Y0I50500000J0D01*
G01*
%TO.N,1*%
X34500000Y0D02*
G75*
G02*
X-34500000Y0I-34500000J0D01*
G01*
X-34500000Y0D02*
G75*
G02*
X34500000Y0I34500000J0D01*
G01*
%TO.N,14*%
X86500000Y0D02*
G75*
G02*
X-86500000Y0I-86500000J0D01*
G01*
X-86500000Y0D02*
G75*
G02*
X86500000Y0I86500000J0D01*
G01*
%TO.N,18*%
X102500000Y0D02*
G75*
G02*
X-102500000Y0I-102500000J0D01*
G01*
X-102500000Y0D02*
G75*
G02*
X102500000Y0I102500000J0D01*
G01*
%TO.N,13*%
X82500000Y0D02*
G75*
G02*
X-82500000Y0I-82500000J0D01*
G01*
X-82500000Y0D02*
G75*
G02*
X82500000Y0I82500000J0D01*
G01*
%TO.N,7*%
X58500000Y0D02*
G75*
G02*
X-58500000Y0I-58500000J0D01*
G01*
X-58500000Y0D02*
G75*
G02*
X58500000Y0I58500000J0D01*
G01*
%TO.N,17*%
X98500000Y0D02*
G75*
G02*
X-98500000Y0I-98500000J0D01*
G01*
X-98500000Y0D02*
G75*
G02*
X98500000Y0I98500000J0D01*
G01*
%TO.N,6*%
X54500000Y0D02*
G75*
G02*
X-54500000Y0I-54500000J0D01*
G01*
X-54500000Y0D02*
G75*
G02*
X54500000Y0I54500000J0D01*
G01*
%TO.N,10*%
X70500000Y0D02*
G75*
G02*
X-70500000Y0I-70500000J0D01*
G01*
X-70500000Y0D02*
G75*
G02*
X70500000Y0I70500000J0D01*
G01*
%TO.N,9*%
X66500000Y0D02*
G75*
G02*
X-66500000Y0I-66500000J0D01*
G01*
X-66500000Y0D02*
G75*
G02*
X66500000Y0I66500000J0D01*
G01*
%TO.N,3*%
X42500000Y0D02*
G75*
G02*
X-42500000Y0I-42500000J0D01*
G01*
X-42500000Y0D02*
G75*
G02*
X42500000Y0I42500000J0D01*
G01*
%TO.N,15*%
X90500000Y0D02*
G75*
G02*
X-90500000Y0I-90500000J0D01*
G01*
X-90500000Y0D02*
G75*
G02*
X90500000Y0I90500000J0D01*
G01*
%TO.N,11*%
X74500000Y0D02*
G75*
G02*
X-74500000Y0I-74500000J0D01*
G01*
X-74500000Y0D02*
G75*
G02*
X74500000Y0I74500000J0D01*
G01*
%TD*%
D11*
%TO.N,8*%
X-44182988Y-44182988D03*
D12*
X0Y-61529000D03*
D11*
X44309988Y-44182988D03*
D12*
X-61531000Y0D03*
D11*
X-44182988Y44182988D03*
D12*
X0Y61500000D03*
D11*
X44299281Y44172281D03*
D12*
X61531000Y0D03*
%TO.N,6*%
X0Y53500000D03*
D11*
X-38526135Y38526135D03*
X38642427Y38515427D03*
D12*
X0Y-53529000D03*
X53531000Y0D03*
D11*
X38653135Y-38526135D03*
X-38526135Y-38526135D03*
D12*
X-53531000Y0D03*
D11*
%TO.N,7*%
X-41354562Y-41354562D03*
D12*
X0Y57500000D03*
X0Y-57529000D03*
X57531000Y0D03*
D11*
X-41354562Y41354562D03*
D12*
X-57531000Y0D03*
D11*
X41470854Y41343854D03*
X41481562Y-41354562D03*
D12*
%TO.N,5*%
X-49531000Y0D03*
D11*
X-35697708Y35697708D03*
X-35697708Y-35697708D03*
D12*
X0Y-49529000D03*
D11*
X35824708Y-35697708D03*
D12*
X0Y49500000D03*
X49531000Y0D03*
D11*
X35814000Y35687000D03*
D12*
%TO.N,4*%
X0Y-45529000D03*
D11*
X-32869281Y-32869281D03*
D12*
X0Y45500000D03*
X45531000Y0D03*
D11*
X32985573Y32858573D03*
D12*
X-45531000Y0D03*
D11*
X32996281Y-32869281D03*
X-32869281Y32869281D03*
D12*
%TO.N,1*%
X33531000Y0D03*
X0Y33500000D03*
D11*
X24500292Y24373292D03*
D12*
X0Y-33529000D03*
D11*
X24511000Y-24384000D03*
D12*
X-33531000Y0D03*
D11*
X-24384000Y-24384000D03*
X-24384000Y24384000D03*
D12*
%TO.N,2*%
X-37531000Y0D03*
X0Y37500000D03*
D11*
X27339426Y-27212426D03*
D12*
X0Y-37529000D03*
X37531000Y0D03*
D11*
X27328719Y27201719D03*
X-27212426Y27212426D03*
X-27212426Y-27212426D03*
D12*
%TO.N,3*%
X-41531000Y0D03*
D11*
X30157146Y30030146D03*
D12*
X0Y41500000D03*
D11*
X30167854Y-30040854D03*
D12*
X41531000Y0D03*
D11*
X-30040854Y-30040854D03*
X-30040854Y30040854D03*
D12*
X0Y-41529000D03*
D11*
%TO.N,9*%
X47127709Y47000709D03*
D12*
X65531000Y0D03*
X-65531000Y0D03*
D11*
X-47011417Y47011417D03*
X47138417Y-47011417D03*
D12*
X0Y-65529000D03*
D11*
X-47011417Y-47011417D03*
D12*
X0Y65500000D03*
%TO.N,10*%
X0Y69469000D03*
D11*
X49934215Y49807215D03*
X-49817923Y49817923D03*
D12*
X-69469000Y0D03*
X0Y-69469000D03*
X69535000Y0D03*
D11*
X-49817923Y-49817923D03*
X49944923Y-49817923D03*
%TO.N,11*%
X52762642Y52635642D03*
X-52646350Y-52646350D03*
D12*
X0Y-73469000D03*
X0Y73469000D03*
X73535000Y0D03*
D11*
X-52646350Y52646350D03*
X52773350Y-52646350D03*
D12*
X-73469000Y0D03*
D11*
%TO.N,12*%
X-55474778Y-55474778D03*
D12*
X0Y-77469000D03*
D11*
X-55474778Y55474778D03*
X55601778Y-55474778D03*
D12*
X-77469000Y0D03*
D11*
X55591070Y55464070D03*
D12*
X0Y77469000D03*
X77535000Y0D03*
%TO.N,13*%
X81535000Y0D03*
X0Y-81468999D03*
X-81468999Y0D03*
D11*
X58430204Y-58303204D03*
D12*
X0Y81468999D03*
D11*
X-58303204Y-58303204D03*
X-58303204Y58303204D03*
X58419496Y58292496D03*
D12*
%TO.N,15*%
X89535000Y0D03*
X0Y89469001D03*
D11*
X64087059Y-63960059D03*
D12*
X0Y-89469001D03*
X-89469001Y0D03*
D11*
X-63960059Y63960059D03*
X64076352Y63949352D03*
X-63960059Y-63960059D03*
D12*
%TO.N,14*%
X-85468999Y0D03*
X0Y85468999D03*
D11*
X-61131631Y-61131631D03*
X61247923Y61120923D03*
X-61131631Y61131631D03*
D12*
X85535000Y0D03*
D11*
X61258631Y-61131631D03*
D12*
X0Y-85468999D03*
D11*
%TO.N,16*%
X-66788486Y-66788486D03*
D12*
X93535000Y0D03*
D11*
X66904778Y66777778D03*
D12*
X0Y93469000D03*
X-93469000Y0D03*
X0Y-93469000D03*
D11*
X-66788486Y66788486D03*
X66915486Y-66788486D03*
D12*
%TO.N,17*%
X-97469000Y0D03*
X0Y-97469000D03*
X97535000Y0D03*
D11*
X-69616913Y-69616913D03*
X-69616913Y69616913D03*
D12*
X0Y97469000D03*
D11*
X69743913Y-69616913D03*
X69733205Y69606205D03*
%TO.N,18*%
X-72445340Y72445340D03*
X-72445340Y-72445340D03*
D12*
X0Y-101469000D03*
X-101469000Y0D03*
X101535000Y0D03*
D11*
X72572340Y-72445340D03*
X72561632Y72434632D03*
D12*
X0Y101469000D03*
%TD*%
M02*
