%TF.GenerationSoftware,KiCad,Pcbnew,9.0.2*%
%TF.CreationDate,2025-09-28T22:00:49+01:00*%
%TF.ProjectId,X_pogo-ring,585f706f-676f-42d7-9269-6e672e6b6963,rev?*%
%TF.SameCoordinates,Original*%
%TF.FileFunction,Copper,L1,Top*%
%TF.FilePolarity,Positive*%
%FSLAX46Y46*%
G04 Gerber Fmt 4.6, Leading zero omitted, Abs format (unit mm)*
G04 Created by KiCad (PCBNEW 9.0.2) date 2025-09-28 22:00:49*
%MOMM*%
%LPD*%
G01*
G04 APERTURE LIST*
%TA.AperFunction,Conductor*%
%ADD10C,3.000000*%
%TD*%
%TA.AperFunction,ViaPad*%
%ADD11C,2.000000*%
%TD*%
%TA.AperFunction,ViaPad*%
%ADD12C,1.600000*%
%TD*%
G04 APERTURE END LIST*
D10*
%TO.N,7*%
X169967000Y-88265000D02*
G75*
G02*
X52967000Y-88265000I-58500000J0D01*
G01*
X52967000Y-88265000D02*
G75*
G02*
X169967000Y-88265000I58500000J0D01*
G01*
%TO.N,3*%
X153967000Y-88265000D02*
G75*
G02*
X68967000Y-88265000I-42500000J0D01*
G01*
X68967000Y-88265000D02*
G75*
G02*
X153967000Y-88265000I42500000J0D01*
G01*
%TO.N,2*%
X149967000Y-88265000D02*
G75*
G02*
X72967000Y-88265000I-38500000J0D01*
G01*
X72967000Y-88265000D02*
G75*
G02*
X149967000Y-88265000I38500000J0D01*
G01*
%TO.N,6*%
X165967000Y-88265000D02*
G75*
G02*
X56967000Y-88265000I-54500000J0D01*
G01*
X56967000Y-88265000D02*
G75*
G02*
X165967000Y-88265000I54500000J0D01*
G01*
%TO.N,5*%
X161967000Y-88265000D02*
G75*
G02*
X60967000Y-88265000I-50500000J0D01*
G01*
X60967000Y-88265000D02*
G75*
G02*
X161967000Y-88265000I50500000J0D01*
G01*
%TO.N,8*%
X173967000Y-88265000D02*
G75*
G02*
X48967000Y-88265000I-62500000J0D01*
G01*
X48967000Y-88265000D02*
G75*
G02*
X173967000Y-88265000I62500000J0D01*
G01*
%TO.N,1*%
X145967000Y-88265000D02*
G75*
G02*
X76967000Y-88265000I-34500000J0D01*
G01*
X76967000Y-88265000D02*
G75*
G02*
X145967000Y-88265000I34500000J0D01*
G01*
%TO.N,4*%
X157967000Y-88265000D02*
G75*
G02*
X64967000Y-88265000I-46500000J0D01*
G01*
X64967000Y-88265000D02*
G75*
G02*
X157967000Y-88265000I46500000J0D01*
G01*
%TO.N,9*%
X177967000Y-88265000D02*
G75*
G02*
X44967000Y-88265000I-66500000J0D01*
G01*
X44967000Y-88265000D02*
G75*
G02*
X177967000Y-88265000I66500000J0D01*
G01*
%TD*%
D11*
%TO.N,1*%
X87128135Y-112730865D03*
X136083583Y-112754583D03*
D12*
X111467000Y-54765000D03*
X144998000Y-88265000D03*
X77936000Y-88265000D03*
X111467000Y-121794000D03*
D11*
X135805865Y-64053135D03*
X87083000Y-63881000D03*
D12*
%TO.N,2*%
X148998000Y-88265000D03*
X111467000Y-125794000D03*
D11*
X84254573Y-61052573D03*
D12*
X73936000Y-88265000D03*
D11*
X84299708Y-115559292D03*
X138634292Y-61224708D03*
X138912010Y-115583010D03*
D12*
X111467000Y-50765000D03*
D11*
%TO.N,3*%
X81426146Y-58224146D03*
D12*
X69936000Y-88265000D03*
D11*
X81471281Y-118387719D03*
D12*
X111467000Y-46765000D03*
X152998000Y-88265000D03*
D11*
X141740437Y-118411437D03*
D12*
X111467000Y-129794000D03*
D11*
X141462719Y-58396281D03*
D12*
%TO.N,4*%
X111467000Y-42765000D03*
D11*
X78642854Y-121216146D03*
D12*
X156998000Y-88265000D03*
D11*
X78597719Y-55395719D03*
X144291146Y-55567854D03*
D12*
X111467000Y-133794000D03*
X65936000Y-88265000D03*
D11*
X144568864Y-121239864D03*
D12*
%TO.N,5*%
X160998000Y-88265000D03*
X61936000Y-88265000D03*
D11*
X75814427Y-124044573D03*
X147119573Y-52739427D03*
D12*
X111467000Y-137794000D03*
D11*
X147397291Y-124068291D03*
D12*
X111467000Y-38765000D03*
D11*
X75769292Y-52567292D03*
%TO.N,6*%
X72940865Y-49738865D03*
X149948000Y-49911000D03*
D12*
X111467000Y-34765000D03*
X164998000Y-88265000D03*
X57936000Y-88265000D03*
X111467000Y-141794000D03*
D11*
X150225718Y-126896718D03*
X72986000Y-126873000D03*
%TO.N,7*%
X70112437Y-46910437D03*
D12*
X53936000Y-88265000D03*
D11*
X152776428Y-47082572D03*
D12*
X168998000Y-88265000D03*
X111467000Y-30765000D03*
D11*
X153054146Y-129725146D03*
X70157572Y-129701428D03*
D12*
X111467000Y-145794000D03*
D11*
%TO.N,8*%
X67329145Y-132529855D03*
D12*
X49936000Y-88265000D03*
X111467000Y-26765000D03*
D11*
X155882573Y-132553573D03*
X155604855Y-44254145D03*
D12*
X172998000Y-88265000D03*
D11*
X67284010Y-44082010D03*
D12*
X111467000Y-149794000D03*
D11*
%TO.N,9*%
X158711000Y-135382000D03*
X64455583Y-41253583D03*
X64500718Y-135358282D03*
X158433282Y-41425718D03*
D12*
X111467000Y-153794000D03*
X111467000Y-22765000D03*
X176998000Y-88265000D03*
X45936000Y-88265000D03*
%TD*%
M02*
