%TF.GenerationSoftware,KiCad,Pcbnew,9.0.2*%
%TF.CreationDate,2025-07-16T11:30:41+01:00*%
%TF.ProjectId,High Tech Fidget Spinner,48696768-2054-4656-9368-204669646765,rev?*%
%TF.SameCoordinates,Original*%
%TF.FileFunction,Legend,Top*%
%TF.FilePolarity,Positive*%
%FSLAX46Y46*%
G04 Gerber Fmt 4.6, Leading zero omitted, Abs format (unit mm)*
G04 Created by KiCad (PCBNEW 9.0.2) date 2025-07-16 11:30:41*
%MOMM*%
%LPD*%
G01*
G04 APERTURE LIST*
%ADD10C,0.150000*%
%ADD11C,0.120000*%
%ADD12C,0.100000*%
G04 APERTURE END LIST*
D10*
X36496666Y-43744819D02*
X36496666Y-44459104D01*
X36496666Y-44459104D02*
X36449047Y-44601961D01*
X36449047Y-44601961D02*
X36353809Y-44697200D01*
X36353809Y-44697200D02*
X36210952Y-44744819D01*
X36210952Y-44744819D02*
X36115714Y-44744819D01*
X37449047Y-43744819D02*
X36972857Y-43744819D01*
X36972857Y-43744819D02*
X36925238Y-44221009D01*
X36925238Y-44221009D02*
X36972857Y-44173390D01*
X36972857Y-44173390D02*
X37068095Y-44125771D01*
X37068095Y-44125771D02*
X37306190Y-44125771D01*
X37306190Y-44125771D02*
X37401428Y-44173390D01*
X37401428Y-44173390D02*
X37449047Y-44221009D01*
X37449047Y-44221009D02*
X37496666Y-44316247D01*
X37496666Y-44316247D02*
X37496666Y-44554342D01*
X37496666Y-44554342D02*
X37449047Y-44649580D01*
X37449047Y-44649580D02*
X37401428Y-44697200D01*
X37401428Y-44697200D02*
X37306190Y-44744819D01*
X37306190Y-44744819D02*
X37068095Y-44744819D01*
X37068095Y-44744819D02*
X36972857Y-44697200D01*
X36972857Y-44697200D02*
X36925238Y-44649580D01*
X81494019Y-59232704D02*
X82303542Y-59232704D01*
X82303542Y-59232704D02*
X82398780Y-59185085D01*
X82398780Y-59185085D02*
X82446400Y-59137466D01*
X82446400Y-59137466D02*
X82494019Y-59042228D01*
X82494019Y-59042228D02*
X82494019Y-58851752D01*
X82494019Y-58851752D02*
X82446400Y-58756514D01*
X82446400Y-58756514D02*
X82398780Y-58708895D01*
X82398780Y-58708895D02*
X82303542Y-58661276D01*
X82303542Y-58661276D02*
X81494019Y-58661276D01*
X82494019Y-57661276D02*
X82494019Y-58232704D01*
X82494019Y-57946990D02*
X81494019Y-57946990D01*
X81494019Y-57946990D02*
X81636876Y-58042228D01*
X81636876Y-58042228D02*
X81732114Y-58137466D01*
X81732114Y-58137466D02*
X81779733Y-58232704D01*
X70675866Y-56246833D02*
X70675866Y-55546833D01*
X70675866Y-55546833D02*
X70842533Y-55546833D01*
X70842533Y-55546833D02*
X70942533Y-55580166D01*
X70942533Y-55580166D02*
X71009200Y-55646833D01*
X71009200Y-55646833D02*
X71042533Y-55713500D01*
X71042533Y-55713500D02*
X71075866Y-55846833D01*
X71075866Y-55846833D02*
X71075866Y-55946833D01*
X71075866Y-55946833D02*
X71042533Y-56080166D01*
X71042533Y-56080166D02*
X71009200Y-56146833D01*
X71009200Y-56146833D02*
X70942533Y-56213500D01*
X70942533Y-56213500D02*
X70842533Y-56246833D01*
X70842533Y-56246833D02*
X70675866Y-56246833D01*
X71275866Y-55546833D02*
X71509200Y-56246833D01*
X71509200Y-56246833D02*
X71742533Y-55546833D01*
X72175866Y-55546833D02*
X72175866Y-56046833D01*
X72175866Y-56046833D02*
X72142533Y-56146833D01*
X72142533Y-56146833D02*
X72075866Y-56213500D01*
X72075866Y-56213500D02*
X71975866Y-56246833D01*
X71975866Y-56246833D02*
X71909200Y-56246833D01*
X72809199Y-55546833D02*
X72675866Y-55546833D01*
X72675866Y-55546833D02*
X72609199Y-55580166D01*
X72609199Y-55580166D02*
X72575866Y-55613500D01*
X72575866Y-55613500D02*
X72509199Y-55713500D01*
X72509199Y-55713500D02*
X72475866Y-55846833D01*
X72475866Y-55846833D02*
X72475866Y-56113500D01*
X72475866Y-56113500D02*
X72509199Y-56180166D01*
X72509199Y-56180166D02*
X72542533Y-56213500D01*
X72542533Y-56213500D02*
X72609199Y-56246833D01*
X72609199Y-56246833D02*
X72742533Y-56246833D01*
X72742533Y-56246833D02*
X72809199Y-56213500D01*
X72809199Y-56213500D02*
X72842533Y-56180166D01*
X72842533Y-56180166D02*
X72875866Y-56113500D01*
X72875866Y-56113500D02*
X72875866Y-55946833D01*
X72875866Y-55946833D02*
X72842533Y-55880166D01*
X72842533Y-55880166D02*
X72809199Y-55846833D01*
X72809199Y-55846833D02*
X72742533Y-55813500D01*
X72742533Y-55813500D02*
X72609199Y-55813500D01*
X72609199Y-55813500D02*
X72542533Y-55846833D01*
X72542533Y-55846833D02*
X72509199Y-55880166D01*
X72509199Y-55880166D02*
X72475866Y-55946833D01*
X73142533Y-56046833D02*
X73475866Y-56046833D01*
X73075866Y-56246833D02*
X73309200Y-55546833D01*
X73309200Y-55546833D02*
X73542533Y-56246833D01*
X68795866Y-57516833D02*
X68795866Y-56816833D01*
X68795866Y-56816833D02*
X69029200Y-57316833D01*
X69029200Y-57316833D02*
X69262533Y-56816833D01*
X69262533Y-56816833D02*
X69262533Y-57516833D01*
X69595866Y-57516833D02*
X69595866Y-56816833D01*
X69929199Y-57516833D02*
X69929199Y-56816833D01*
X69929199Y-56816833D02*
X70162533Y-57316833D01*
X70162533Y-57316833D02*
X70395866Y-56816833D01*
X70395866Y-56816833D02*
X70395866Y-57516833D01*
X70662533Y-56816833D02*
X71129199Y-57516833D01*
X71129199Y-56816833D02*
X70662533Y-57516833D01*
X71795866Y-57516833D02*
X71562533Y-57183500D01*
X71395866Y-57516833D02*
X71395866Y-56816833D01*
X71395866Y-56816833D02*
X71662533Y-56816833D01*
X71662533Y-56816833D02*
X71729200Y-56850166D01*
X71729200Y-56850166D02*
X71762533Y-56883500D01*
X71762533Y-56883500D02*
X71795866Y-56950166D01*
X71795866Y-56950166D02*
X71795866Y-57050166D01*
X71795866Y-57050166D02*
X71762533Y-57116833D01*
X71762533Y-57116833D02*
X71729200Y-57150166D01*
X71729200Y-57150166D02*
X71662533Y-57183500D01*
X71662533Y-57183500D02*
X71395866Y-57183500D01*
X71995866Y-56816833D02*
X72395866Y-56816833D01*
X72195866Y-57516833D02*
X72195866Y-56816833D01*
X72995866Y-57516833D02*
X72595866Y-57516833D01*
X72795866Y-57516833D02*
X72795866Y-56816833D01*
X72795866Y-56816833D02*
X72729199Y-56916833D01*
X72729199Y-56916833D02*
X72662533Y-56983500D01*
X72662533Y-56983500D02*
X72595866Y-57016833D01*
X73429200Y-56816833D02*
X73495866Y-56816833D01*
X73495866Y-56816833D02*
X73562533Y-56850166D01*
X73562533Y-56850166D02*
X73595866Y-56883500D01*
X73595866Y-56883500D02*
X73629200Y-56950166D01*
X73629200Y-56950166D02*
X73662533Y-57083500D01*
X73662533Y-57083500D02*
X73662533Y-57250166D01*
X73662533Y-57250166D02*
X73629200Y-57383500D01*
X73629200Y-57383500D02*
X73595866Y-57450166D01*
X73595866Y-57450166D02*
X73562533Y-57483500D01*
X73562533Y-57483500D02*
X73495866Y-57516833D01*
X73495866Y-57516833D02*
X73429200Y-57516833D01*
X73429200Y-57516833D02*
X73362533Y-57483500D01*
X73362533Y-57483500D02*
X73329200Y-57450166D01*
X73329200Y-57450166D02*
X73295866Y-57383500D01*
X73295866Y-57383500D02*
X73262533Y-57250166D01*
X73262533Y-57250166D02*
X73262533Y-57083500D01*
X73262533Y-57083500D02*
X73295866Y-56950166D01*
X73295866Y-56950166D02*
X73329200Y-56883500D01*
X73329200Y-56883500D02*
X73362533Y-56850166D01*
X73362533Y-56850166D02*
X73429200Y-56816833D01*
X74262533Y-56816833D02*
X74129200Y-56816833D01*
X74129200Y-56816833D02*
X74062533Y-56850166D01*
X74062533Y-56850166D02*
X74029200Y-56883500D01*
X74029200Y-56883500D02*
X73962533Y-56983500D01*
X73962533Y-56983500D02*
X73929200Y-57116833D01*
X73929200Y-57116833D02*
X73929200Y-57383500D01*
X73929200Y-57383500D02*
X73962533Y-57450166D01*
X73962533Y-57450166D02*
X73995867Y-57483500D01*
X73995867Y-57483500D02*
X74062533Y-57516833D01*
X74062533Y-57516833D02*
X74195867Y-57516833D01*
X74195867Y-57516833D02*
X74262533Y-57483500D01*
X74262533Y-57483500D02*
X74295867Y-57450166D01*
X74295867Y-57450166D02*
X74329200Y-57383500D01*
X74329200Y-57383500D02*
X74329200Y-57216833D01*
X74329200Y-57216833D02*
X74295867Y-57150166D01*
X74295867Y-57150166D02*
X74262533Y-57116833D01*
X74262533Y-57116833D02*
X74195867Y-57083500D01*
X74195867Y-57083500D02*
X74062533Y-57083500D01*
X74062533Y-57083500D02*
X73995867Y-57116833D01*
X73995867Y-57116833D02*
X73962533Y-57150166D01*
X73962533Y-57150166D02*
X73929200Y-57216833D01*
X74595867Y-56883500D02*
X74629200Y-56850166D01*
X74629200Y-56850166D02*
X74695867Y-56816833D01*
X74695867Y-56816833D02*
X74862534Y-56816833D01*
X74862534Y-56816833D02*
X74929200Y-56850166D01*
X74929200Y-56850166D02*
X74962534Y-56883500D01*
X74962534Y-56883500D02*
X74995867Y-56950166D01*
X74995867Y-56950166D02*
X74995867Y-57016833D01*
X74995867Y-57016833D02*
X74962534Y-57116833D01*
X74962534Y-57116833D02*
X74562534Y-57516833D01*
X74562534Y-57516833D02*
X74995867Y-57516833D01*
X72334019Y-85719847D02*
X71334019Y-85719847D01*
X71334019Y-85719847D02*
X72048304Y-85386514D01*
X72048304Y-85386514D02*
X71334019Y-85053181D01*
X71334019Y-85053181D02*
X72334019Y-85053181D01*
X72334019Y-84576990D02*
X71667352Y-84576990D01*
X71334019Y-84576990D02*
X71381638Y-84624609D01*
X71381638Y-84624609D02*
X71429257Y-84576990D01*
X71429257Y-84576990D02*
X71381638Y-84529371D01*
X71381638Y-84529371D02*
X71334019Y-84576990D01*
X71334019Y-84576990D02*
X71429257Y-84576990D01*
X72286400Y-83672229D02*
X72334019Y-83767467D01*
X72334019Y-83767467D02*
X72334019Y-83957943D01*
X72334019Y-83957943D02*
X72286400Y-84053181D01*
X72286400Y-84053181D02*
X72238780Y-84100800D01*
X72238780Y-84100800D02*
X72143542Y-84148419D01*
X72143542Y-84148419D02*
X71857828Y-84148419D01*
X71857828Y-84148419D02*
X71762590Y-84100800D01*
X71762590Y-84100800D02*
X71714971Y-84053181D01*
X71714971Y-84053181D02*
X71667352Y-83957943D01*
X71667352Y-83957943D02*
X71667352Y-83767467D01*
X71667352Y-83767467D02*
X71714971Y-83672229D01*
X72334019Y-83243657D02*
X71667352Y-83243657D01*
X71857828Y-83243657D02*
X71762590Y-83196038D01*
X71762590Y-83196038D02*
X71714971Y-83148419D01*
X71714971Y-83148419D02*
X71667352Y-83053181D01*
X71667352Y-83053181D02*
X71667352Y-82957943D01*
X72334019Y-82481752D02*
X72286400Y-82576990D01*
X72286400Y-82576990D02*
X72238780Y-82624609D01*
X72238780Y-82624609D02*
X72143542Y-82672228D01*
X72143542Y-82672228D02*
X71857828Y-82672228D01*
X71857828Y-82672228D02*
X71762590Y-82624609D01*
X71762590Y-82624609D02*
X71714971Y-82576990D01*
X71714971Y-82576990D02*
X71667352Y-82481752D01*
X71667352Y-82481752D02*
X71667352Y-82338895D01*
X71667352Y-82338895D02*
X71714971Y-82243657D01*
X71714971Y-82243657D02*
X71762590Y-82196038D01*
X71762590Y-82196038D02*
X71857828Y-82148419D01*
X71857828Y-82148419D02*
X72143542Y-82148419D01*
X72143542Y-82148419D02*
X72238780Y-82196038D01*
X72238780Y-82196038D02*
X72286400Y-82243657D01*
X72286400Y-82243657D02*
X72334019Y-82338895D01*
X72334019Y-82338895D02*
X72334019Y-82481752D01*
X72286400Y-81005561D02*
X72334019Y-80862704D01*
X72334019Y-80862704D02*
X72334019Y-80624609D01*
X72334019Y-80624609D02*
X72286400Y-80529371D01*
X72286400Y-80529371D02*
X72238780Y-80481752D01*
X72238780Y-80481752D02*
X72143542Y-80434133D01*
X72143542Y-80434133D02*
X72048304Y-80434133D01*
X72048304Y-80434133D02*
X71953066Y-80481752D01*
X71953066Y-80481752D02*
X71905447Y-80529371D01*
X71905447Y-80529371D02*
X71857828Y-80624609D01*
X71857828Y-80624609D02*
X71810209Y-80815085D01*
X71810209Y-80815085D02*
X71762590Y-80910323D01*
X71762590Y-80910323D02*
X71714971Y-80957942D01*
X71714971Y-80957942D02*
X71619733Y-81005561D01*
X71619733Y-81005561D02*
X71524495Y-81005561D01*
X71524495Y-81005561D02*
X71429257Y-80957942D01*
X71429257Y-80957942D02*
X71381638Y-80910323D01*
X71381638Y-80910323D02*
X71334019Y-80815085D01*
X71334019Y-80815085D02*
X71334019Y-80576990D01*
X71334019Y-80576990D02*
X71381638Y-80434133D01*
X72334019Y-80005561D02*
X71334019Y-80005561D01*
X71334019Y-80005561D02*
X71334019Y-79767466D01*
X71334019Y-79767466D02*
X71381638Y-79624609D01*
X71381638Y-79624609D02*
X71476876Y-79529371D01*
X71476876Y-79529371D02*
X71572114Y-79481752D01*
X71572114Y-79481752D02*
X71762590Y-79434133D01*
X71762590Y-79434133D02*
X71905447Y-79434133D01*
X71905447Y-79434133D02*
X72095923Y-79481752D01*
X72095923Y-79481752D02*
X72191161Y-79529371D01*
X72191161Y-79529371D02*
X72286400Y-79624609D01*
X72286400Y-79624609D02*
X72334019Y-79767466D01*
X72334019Y-79767466D02*
X72334019Y-80005561D01*
X70617295Y-31255619D02*
X70617295Y-32065142D01*
X70617295Y-32065142D02*
X70664914Y-32160380D01*
X70664914Y-32160380D02*
X70712533Y-32208000D01*
X70712533Y-32208000D02*
X70807771Y-32255619D01*
X70807771Y-32255619D02*
X70998247Y-32255619D01*
X70998247Y-32255619D02*
X71093485Y-32208000D01*
X71093485Y-32208000D02*
X71141104Y-32160380D01*
X71141104Y-32160380D02*
X71188723Y-32065142D01*
X71188723Y-32065142D02*
X71188723Y-31255619D01*
X71617295Y-32208000D02*
X71760152Y-32255619D01*
X71760152Y-32255619D02*
X71998247Y-32255619D01*
X71998247Y-32255619D02*
X72093485Y-32208000D01*
X72093485Y-32208000D02*
X72141104Y-32160380D01*
X72141104Y-32160380D02*
X72188723Y-32065142D01*
X72188723Y-32065142D02*
X72188723Y-31969904D01*
X72188723Y-31969904D02*
X72141104Y-31874666D01*
X72141104Y-31874666D02*
X72093485Y-31827047D01*
X72093485Y-31827047D02*
X71998247Y-31779428D01*
X71998247Y-31779428D02*
X71807771Y-31731809D01*
X71807771Y-31731809D02*
X71712533Y-31684190D01*
X71712533Y-31684190D02*
X71664914Y-31636571D01*
X71664914Y-31636571D02*
X71617295Y-31541333D01*
X71617295Y-31541333D02*
X71617295Y-31446095D01*
X71617295Y-31446095D02*
X71664914Y-31350857D01*
X71664914Y-31350857D02*
X71712533Y-31303238D01*
X71712533Y-31303238D02*
X71807771Y-31255619D01*
X71807771Y-31255619D02*
X72045866Y-31255619D01*
X72045866Y-31255619D02*
X72188723Y-31303238D01*
X72950628Y-31731809D02*
X73093485Y-31779428D01*
X73093485Y-31779428D02*
X73141104Y-31827047D01*
X73141104Y-31827047D02*
X73188723Y-31922285D01*
X73188723Y-31922285D02*
X73188723Y-32065142D01*
X73188723Y-32065142D02*
X73141104Y-32160380D01*
X73141104Y-32160380D02*
X73093485Y-32208000D01*
X73093485Y-32208000D02*
X72998247Y-32255619D01*
X72998247Y-32255619D02*
X72617295Y-32255619D01*
X72617295Y-32255619D02*
X72617295Y-31255619D01*
X72617295Y-31255619D02*
X72950628Y-31255619D01*
X72950628Y-31255619D02*
X73045866Y-31303238D01*
X73045866Y-31303238D02*
X73093485Y-31350857D01*
X73093485Y-31350857D02*
X73141104Y-31446095D01*
X73141104Y-31446095D02*
X73141104Y-31541333D01*
X73141104Y-31541333D02*
X73093485Y-31636571D01*
X73093485Y-31636571D02*
X73045866Y-31684190D01*
X73045866Y-31684190D02*
X72950628Y-31731809D01*
X72950628Y-31731809D02*
X72617295Y-31731809D01*
X72298656Y-46336809D02*
X72631989Y-46336809D01*
X72774846Y-46860619D02*
X72298656Y-46860619D01*
X72298656Y-46860619D02*
X72298656Y-45860619D01*
X72298656Y-45860619D02*
X72774846Y-45860619D01*
X73060561Y-46193952D02*
X73441513Y-46193952D01*
X73203418Y-45860619D02*
X73203418Y-46717761D01*
X73203418Y-46717761D02*
X73251037Y-46813000D01*
X73251037Y-46813000D02*
X73346275Y-46860619D01*
X73346275Y-46860619D02*
X73441513Y-46860619D01*
X73774847Y-46860619D02*
X73774847Y-45860619D01*
X74203418Y-46860619D02*
X74203418Y-46336809D01*
X74203418Y-46336809D02*
X74155799Y-46241571D01*
X74155799Y-46241571D02*
X74060561Y-46193952D01*
X74060561Y-46193952D02*
X73917704Y-46193952D01*
X73917704Y-46193952D02*
X73822466Y-46241571D01*
X73822466Y-46241571D02*
X73774847Y-46289190D01*
X75060561Y-46813000D02*
X74965323Y-46860619D01*
X74965323Y-46860619D02*
X74774847Y-46860619D01*
X74774847Y-46860619D02*
X74679609Y-46813000D01*
X74679609Y-46813000D02*
X74631990Y-46717761D01*
X74631990Y-46717761D02*
X74631990Y-46336809D01*
X74631990Y-46336809D02*
X74679609Y-46241571D01*
X74679609Y-46241571D02*
X74774847Y-46193952D01*
X74774847Y-46193952D02*
X74965323Y-46193952D01*
X74965323Y-46193952D02*
X75060561Y-46241571D01*
X75060561Y-46241571D02*
X75108180Y-46336809D01*
X75108180Y-46336809D02*
X75108180Y-46432047D01*
X75108180Y-46432047D02*
X74631990Y-46527285D01*
X75536752Y-46860619D02*
X75536752Y-46193952D01*
X75536752Y-46384428D02*
X75584371Y-46289190D01*
X75584371Y-46289190D02*
X75631990Y-46241571D01*
X75631990Y-46241571D02*
X75727228Y-46193952D01*
X75727228Y-46193952D02*
X75822466Y-46193952D01*
X76155800Y-46193952D02*
X76155800Y-46860619D01*
X76155800Y-46289190D02*
X76203419Y-46241571D01*
X76203419Y-46241571D02*
X76298657Y-46193952D01*
X76298657Y-46193952D02*
X76441514Y-46193952D01*
X76441514Y-46193952D02*
X76536752Y-46241571D01*
X76536752Y-46241571D02*
X76584371Y-46336809D01*
X76584371Y-46336809D02*
X76584371Y-46860619D01*
X77441514Y-46813000D02*
X77346276Y-46860619D01*
X77346276Y-46860619D02*
X77155800Y-46860619D01*
X77155800Y-46860619D02*
X77060562Y-46813000D01*
X77060562Y-46813000D02*
X77012943Y-46717761D01*
X77012943Y-46717761D02*
X77012943Y-46336809D01*
X77012943Y-46336809D02*
X77060562Y-46241571D01*
X77060562Y-46241571D02*
X77155800Y-46193952D01*
X77155800Y-46193952D02*
X77346276Y-46193952D01*
X77346276Y-46193952D02*
X77441514Y-46241571D01*
X77441514Y-46241571D02*
X77489133Y-46336809D01*
X77489133Y-46336809D02*
X77489133Y-46432047D01*
X77489133Y-46432047D02*
X77012943Y-46527285D01*
X77774848Y-46193952D02*
X78155800Y-46193952D01*
X77917705Y-45860619D02*
X77917705Y-46717761D01*
X77917705Y-46717761D02*
X77965324Y-46813000D01*
X77965324Y-46813000D02*
X78060562Y-46860619D01*
X78060562Y-46860619D02*
X78155800Y-46860619D01*
X68844819Y-43314523D02*
X69654342Y-43314523D01*
X69654342Y-43314523D02*
X69749580Y-43266904D01*
X69749580Y-43266904D02*
X69797200Y-43219285D01*
X69797200Y-43219285D02*
X69844819Y-43124047D01*
X69844819Y-43124047D02*
X69844819Y-42933571D01*
X69844819Y-42933571D02*
X69797200Y-42838333D01*
X69797200Y-42838333D02*
X69749580Y-42790714D01*
X69749580Y-42790714D02*
X69654342Y-42743095D01*
X69654342Y-42743095D02*
X68844819Y-42743095D01*
X69797200Y-42314523D02*
X69844819Y-42171666D01*
X69844819Y-42171666D02*
X69844819Y-41933571D01*
X69844819Y-41933571D02*
X69797200Y-41838333D01*
X69797200Y-41838333D02*
X69749580Y-41790714D01*
X69749580Y-41790714D02*
X69654342Y-41743095D01*
X69654342Y-41743095D02*
X69559104Y-41743095D01*
X69559104Y-41743095D02*
X69463866Y-41790714D01*
X69463866Y-41790714D02*
X69416247Y-41838333D01*
X69416247Y-41838333D02*
X69368628Y-41933571D01*
X69368628Y-41933571D02*
X69321009Y-42124047D01*
X69321009Y-42124047D02*
X69273390Y-42219285D01*
X69273390Y-42219285D02*
X69225771Y-42266904D01*
X69225771Y-42266904D02*
X69130533Y-42314523D01*
X69130533Y-42314523D02*
X69035295Y-42314523D01*
X69035295Y-42314523D02*
X68940057Y-42266904D01*
X68940057Y-42266904D02*
X68892438Y-42219285D01*
X68892438Y-42219285D02*
X68844819Y-42124047D01*
X68844819Y-42124047D02*
X68844819Y-41885952D01*
X68844819Y-41885952D02*
X68892438Y-41743095D01*
X69321009Y-40981190D02*
X69368628Y-40838333D01*
X69368628Y-40838333D02*
X69416247Y-40790714D01*
X69416247Y-40790714D02*
X69511485Y-40743095D01*
X69511485Y-40743095D02*
X69654342Y-40743095D01*
X69654342Y-40743095D02*
X69749580Y-40790714D01*
X69749580Y-40790714D02*
X69797200Y-40838333D01*
X69797200Y-40838333D02*
X69844819Y-40933571D01*
X69844819Y-40933571D02*
X69844819Y-41314523D01*
X69844819Y-41314523D02*
X68844819Y-41314523D01*
X68844819Y-41314523D02*
X68844819Y-40981190D01*
X68844819Y-40981190D02*
X68892438Y-40885952D01*
X68892438Y-40885952D02*
X68940057Y-40838333D01*
X68940057Y-40838333D02*
X69035295Y-40790714D01*
X69035295Y-40790714D02*
X69130533Y-40790714D01*
X69130533Y-40790714D02*
X69225771Y-40838333D01*
X69225771Y-40838333D02*
X69273390Y-40885952D01*
X69273390Y-40885952D02*
X69321009Y-40981190D01*
X69321009Y-40981190D02*
X69321009Y-41314523D01*
X69844819Y-39552618D02*
X68844819Y-39552618D01*
X69321009Y-39552618D02*
X69321009Y-38981190D01*
X69844819Y-38981190D02*
X68844819Y-38981190D01*
X69844819Y-38362142D02*
X69797200Y-38457380D01*
X69797200Y-38457380D02*
X69749580Y-38504999D01*
X69749580Y-38504999D02*
X69654342Y-38552618D01*
X69654342Y-38552618D02*
X69368628Y-38552618D01*
X69368628Y-38552618D02*
X69273390Y-38504999D01*
X69273390Y-38504999D02*
X69225771Y-38457380D01*
X69225771Y-38457380D02*
X69178152Y-38362142D01*
X69178152Y-38362142D02*
X69178152Y-38219285D01*
X69178152Y-38219285D02*
X69225771Y-38124047D01*
X69225771Y-38124047D02*
X69273390Y-38076428D01*
X69273390Y-38076428D02*
X69368628Y-38028809D01*
X69368628Y-38028809D02*
X69654342Y-38028809D01*
X69654342Y-38028809D02*
X69749580Y-38076428D01*
X69749580Y-38076428D02*
X69797200Y-38124047D01*
X69797200Y-38124047D02*
X69844819Y-38219285D01*
X69844819Y-38219285D02*
X69844819Y-38362142D01*
X69797200Y-37647856D02*
X69844819Y-37552618D01*
X69844819Y-37552618D02*
X69844819Y-37362142D01*
X69844819Y-37362142D02*
X69797200Y-37266904D01*
X69797200Y-37266904D02*
X69701961Y-37219285D01*
X69701961Y-37219285D02*
X69654342Y-37219285D01*
X69654342Y-37219285D02*
X69559104Y-37266904D01*
X69559104Y-37266904D02*
X69511485Y-37362142D01*
X69511485Y-37362142D02*
X69511485Y-37504999D01*
X69511485Y-37504999D02*
X69463866Y-37600237D01*
X69463866Y-37600237D02*
X69368628Y-37647856D01*
X69368628Y-37647856D02*
X69321009Y-37647856D01*
X69321009Y-37647856D02*
X69225771Y-37600237D01*
X69225771Y-37600237D02*
X69178152Y-37504999D01*
X69178152Y-37504999D02*
X69178152Y-37362142D01*
X69178152Y-37362142D02*
X69225771Y-37266904D01*
X69178152Y-36933570D02*
X69178152Y-36552618D01*
X68844819Y-36790713D02*
X69701961Y-36790713D01*
X69701961Y-36790713D02*
X69797200Y-36743094D01*
X69797200Y-36743094D02*
X69844819Y-36647856D01*
X69844819Y-36647856D02*
X69844819Y-36552618D01*
X86026666Y-64384819D02*
X86026666Y-65099104D01*
X86026666Y-65099104D02*
X85979047Y-65241961D01*
X85979047Y-65241961D02*
X85883809Y-65337200D01*
X85883809Y-65337200D02*
X85740952Y-65384819D01*
X85740952Y-65384819D02*
X85645714Y-65384819D01*
X86645714Y-64813390D02*
X86550476Y-64765771D01*
X86550476Y-64765771D02*
X86502857Y-64718152D01*
X86502857Y-64718152D02*
X86455238Y-64622914D01*
X86455238Y-64622914D02*
X86455238Y-64575295D01*
X86455238Y-64575295D02*
X86502857Y-64480057D01*
X86502857Y-64480057D02*
X86550476Y-64432438D01*
X86550476Y-64432438D02*
X86645714Y-64384819D01*
X86645714Y-64384819D02*
X86836190Y-64384819D01*
X86836190Y-64384819D02*
X86931428Y-64432438D01*
X86931428Y-64432438D02*
X86979047Y-64480057D01*
X86979047Y-64480057D02*
X87026666Y-64575295D01*
X87026666Y-64575295D02*
X87026666Y-64622914D01*
X87026666Y-64622914D02*
X86979047Y-64718152D01*
X86979047Y-64718152D02*
X86931428Y-64765771D01*
X86931428Y-64765771D02*
X86836190Y-64813390D01*
X86836190Y-64813390D02*
X86645714Y-64813390D01*
X86645714Y-64813390D02*
X86550476Y-64861009D01*
X86550476Y-64861009D02*
X86502857Y-64908628D01*
X86502857Y-64908628D02*
X86455238Y-65003866D01*
X86455238Y-65003866D02*
X86455238Y-65194342D01*
X86455238Y-65194342D02*
X86502857Y-65289580D01*
X86502857Y-65289580D02*
X86550476Y-65337200D01*
X86550476Y-65337200D02*
X86645714Y-65384819D01*
X86645714Y-65384819D02*
X86836190Y-65384819D01*
X86836190Y-65384819D02*
X86931428Y-65337200D01*
X86931428Y-65337200D02*
X86979047Y-65289580D01*
X86979047Y-65289580D02*
X87026666Y-65194342D01*
X87026666Y-65194342D02*
X87026666Y-65003866D01*
X87026666Y-65003866D02*
X86979047Y-64908628D01*
X86979047Y-64908628D02*
X86931428Y-64861009D01*
X86931428Y-64861009D02*
X86836190Y-64813390D01*
X86026666Y-46604819D02*
X86026666Y-47319104D01*
X86026666Y-47319104D02*
X85979047Y-47461961D01*
X85979047Y-47461961D02*
X85883809Y-47557200D01*
X85883809Y-47557200D02*
X85740952Y-47604819D01*
X85740952Y-47604819D02*
X85645714Y-47604819D01*
X86407619Y-46604819D02*
X87074285Y-46604819D01*
X87074285Y-46604819D02*
X86645714Y-47604819D01*
X86026666Y-33904819D02*
X86026666Y-34619104D01*
X86026666Y-34619104D02*
X85979047Y-34761961D01*
X85979047Y-34761961D02*
X85883809Y-34857200D01*
X85883809Y-34857200D02*
X85740952Y-34904819D01*
X85740952Y-34904819D02*
X85645714Y-34904819D01*
X86931428Y-33904819D02*
X86740952Y-33904819D01*
X86740952Y-33904819D02*
X86645714Y-33952438D01*
X86645714Y-33952438D02*
X86598095Y-34000057D01*
X86598095Y-34000057D02*
X86502857Y-34142914D01*
X86502857Y-34142914D02*
X86455238Y-34333390D01*
X86455238Y-34333390D02*
X86455238Y-34714342D01*
X86455238Y-34714342D02*
X86502857Y-34809580D01*
X86502857Y-34809580D02*
X86550476Y-34857200D01*
X86550476Y-34857200D02*
X86645714Y-34904819D01*
X86645714Y-34904819D02*
X86836190Y-34904819D01*
X86836190Y-34904819D02*
X86931428Y-34857200D01*
X86931428Y-34857200D02*
X86979047Y-34809580D01*
X86979047Y-34809580D02*
X87026666Y-34714342D01*
X87026666Y-34714342D02*
X87026666Y-34476247D01*
X87026666Y-34476247D02*
X86979047Y-34381009D01*
X86979047Y-34381009D02*
X86931428Y-34333390D01*
X86931428Y-34333390D02*
X86836190Y-34285771D01*
X86836190Y-34285771D02*
X86645714Y-34285771D01*
X86645714Y-34285771D02*
X86550476Y-34333390D01*
X86550476Y-34333390D02*
X86502857Y-34381009D01*
X86502857Y-34381009D02*
X86455238Y-34476247D01*
X36496666Y-66604819D02*
X36496666Y-67319104D01*
X36496666Y-67319104D02*
X36449047Y-67461961D01*
X36449047Y-67461961D02*
X36353809Y-67557200D01*
X36353809Y-67557200D02*
X36210952Y-67604819D01*
X36210952Y-67604819D02*
X36115714Y-67604819D01*
X37401428Y-66938152D02*
X37401428Y-67604819D01*
X37163333Y-66557200D02*
X36925238Y-67271485D01*
X36925238Y-67271485D02*
X37544285Y-67271485D01*
X36496666Y-89464819D02*
X36496666Y-90179104D01*
X36496666Y-90179104D02*
X36449047Y-90321961D01*
X36449047Y-90321961D02*
X36353809Y-90417200D01*
X36353809Y-90417200D02*
X36210952Y-90464819D01*
X36210952Y-90464819D02*
X36115714Y-90464819D01*
X36877619Y-89464819D02*
X37496666Y-89464819D01*
X37496666Y-89464819D02*
X37163333Y-89845771D01*
X37163333Y-89845771D02*
X37306190Y-89845771D01*
X37306190Y-89845771D02*
X37401428Y-89893390D01*
X37401428Y-89893390D02*
X37449047Y-89941009D01*
X37449047Y-89941009D02*
X37496666Y-90036247D01*
X37496666Y-90036247D02*
X37496666Y-90274342D01*
X37496666Y-90274342D02*
X37449047Y-90369580D01*
X37449047Y-90369580D02*
X37401428Y-90417200D01*
X37401428Y-90417200D02*
X37306190Y-90464819D01*
X37306190Y-90464819D02*
X37020476Y-90464819D01*
X37020476Y-90464819D02*
X36925238Y-90417200D01*
X36925238Y-90417200D02*
X36877619Y-90369580D01*
X86026666Y-33584819D02*
X86026666Y-34299104D01*
X86026666Y-34299104D02*
X85979047Y-34441961D01*
X85979047Y-34441961D02*
X85883809Y-34537200D01*
X85883809Y-34537200D02*
X85740952Y-34584819D01*
X85740952Y-34584819D02*
X85645714Y-34584819D01*
X86455238Y-33680057D02*
X86502857Y-33632438D01*
X86502857Y-33632438D02*
X86598095Y-33584819D01*
X86598095Y-33584819D02*
X86836190Y-33584819D01*
X86836190Y-33584819D02*
X86931428Y-33632438D01*
X86931428Y-33632438D02*
X86979047Y-33680057D01*
X86979047Y-33680057D02*
X87026666Y-33775295D01*
X87026666Y-33775295D02*
X87026666Y-33870533D01*
X87026666Y-33870533D02*
X86979047Y-34013390D01*
X86979047Y-34013390D02*
X86407619Y-34584819D01*
X86407619Y-34584819D02*
X87026666Y-34584819D01*
X39934819Y-29543333D02*
X40649104Y-29543333D01*
X40649104Y-29543333D02*
X40791961Y-29590952D01*
X40791961Y-29590952D02*
X40887200Y-29686190D01*
X40887200Y-29686190D02*
X40934819Y-29829047D01*
X40934819Y-29829047D02*
X40934819Y-29924285D01*
X40934819Y-28543333D02*
X40934819Y-29114761D01*
X40934819Y-28829047D02*
X39934819Y-28829047D01*
X39934819Y-28829047D02*
X40077676Y-28924285D01*
X40077676Y-28924285D02*
X40172914Y-29019523D01*
X40172914Y-29019523D02*
X40220533Y-29114761D01*
D11*
%TO.C,J5*%
X35450000Y-40640000D02*
X35450000Y-32910000D01*
X38210000Y-32910000D02*
X35450000Y-32910000D01*
X38210000Y-40640000D02*
X35450000Y-40640000D01*
X38210000Y-40640000D02*
X38210000Y-32910000D01*
X38210000Y-41910000D02*
X38210000Y-43290000D01*
X38210000Y-43290000D02*
X36830000Y-43290000D01*
D10*
%TO.C,U1*%
X72777226Y-70535800D02*
G75*
G02*
X70981174Y-70535800I-898026J0D01*
G01*
X70981174Y-70535800D02*
G75*
G02*
X72777226Y-70535800I898026J0D01*
G01*
X78229200Y-50850800D02*
X65529200Y-50850800D01*
X78229200Y-63550800D02*
X78229200Y-50850800D01*
X65529200Y-63550800D02*
X78229200Y-63550800D01*
X65529200Y-50850800D02*
X65529200Y-63550800D01*
X78230800Y-41220800D02*
X77980800Y-41220800D01*
X78230800Y-45220800D02*
X78230800Y-41220800D01*
X71980800Y-45220800D02*
X78230800Y-45220800D01*
X71980800Y-41220800D02*
X71980800Y-45220800D01*
X77980800Y-41220800D02*
X71980800Y-41220800D01*
X68580000Y-36830000D02*
X66040000Y-36830000D01*
X68580000Y-34290000D02*
X68580000Y-36830000D01*
X66040000Y-34290000D02*
X68580000Y-34290000D01*
X66040000Y-46990000D02*
X66040000Y-34290000D01*
X68580000Y-46990000D02*
X66040000Y-46990000D01*
X68580000Y-34290000D02*
X68580000Y-46990000D01*
X73149200Y-68630800D02*
X73149200Y-72440800D01*
X70609200Y-68630800D02*
X73149200Y-68630800D01*
X70609200Y-72440800D02*
X70609200Y-68630800D01*
X73149200Y-72440800D02*
X70609200Y-72440800D01*
X66799200Y-87680800D02*
X66799200Y-88950800D01*
X76959200Y-87680800D02*
X66799200Y-87680800D01*
X76959200Y-88950800D02*
X76959200Y-87680800D01*
X65529200Y-76250800D02*
X65529200Y-88950800D01*
X78229200Y-76250800D02*
X65529200Y-76250800D01*
X78229200Y-88950800D02*
X78229200Y-76250800D01*
X68069200Y-27990800D02*
X68069200Y-26720800D01*
X68069200Y-26720800D02*
X75689200Y-26720800D01*
X75689200Y-26720800D02*
X75689200Y-27990800D01*
X68069200Y-33070800D02*
X75689200Y-33070800D01*
X75689200Y-33070800D02*
X75689200Y-27990800D01*
X68069200Y-33070800D02*
X68069200Y-27990800D01*
X80769200Y-27990800D02*
X80769200Y-88950800D01*
X80769200Y-88950800D02*
X62989200Y-88950800D01*
X62989200Y-88950800D02*
X62989200Y-27990800D01*
X62989200Y-27990800D02*
X80769200Y-27990800D01*
D12*
X71805200Y-60651800D02*
X71424200Y-60905800D01*
X71170200Y-60651800D01*
X71551200Y-60397800D01*
X71805200Y-60651800D01*
G36*
X71805200Y-60651800D02*
G01*
X71424200Y-60905800D01*
X71170200Y-60651800D01*
X71551200Y-60397800D01*
X71805200Y-60651800D01*
G37*
X72313200Y-60270800D02*
X71932200Y-60524800D01*
X71678200Y-60270800D01*
X72059200Y-60016800D01*
X72313200Y-60270800D01*
G36*
X72313200Y-60270800D02*
G01*
X71932200Y-60524800D01*
X71678200Y-60270800D01*
X72059200Y-60016800D01*
X72313200Y-60270800D01*
G37*
X72821200Y-59889800D02*
X72440200Y-60143800D01*
X72186200Y-59889800D01*
X72567200Y-59635800D01*
X72821200Y-59889800D01*
G36*
X72821200Y-59889800D02*
G01*
X72440200Y-60143800D01*
X72186200Y-59889800D01*
X72567200Y-59635800D01*
X72821200Y-59889800D01*
G37*
X71932200Y-59889800D02*
X71551200Y-60143800D01*
X71297200Y-59889800D01*
X71678200Y-59635800D01*
X71932200Y-59889800D01*
G36*
X71932200Y-59889800D02*
G01*
X71551200Y-60143800D01*
X71297200Y-59889800D01*
X71678200Y-59635800D01*
X71932200Y-59889800D01*
G37*
X72440200Y-59508800D02*
X72059200Y-59762800D01*
X71805200Y-59508800D01*
X72186200Y-59254800D01*
X72440200Y-59508800D01*
G36*
X72440200Y-59508800D02*
G01*
X72059200Y-59762800D01*
X71805200Y-59508800D01*
X72186200Y-59254800D01*
X72440200Y-59508800D01*
G37*
X72948200Y-59127800D02*
X72567200Y-59381800D01*
X72313200Y-59127800D01*
X72694200Y-58873800D01*
X72948200Y-59127800D01*
G36*
X72948200Y-59127800D02*
G01*
X72567200Y-59381800D01*
X72313200Y-59127800D01*
X72694200Y-58873800D01*
X72948200Y-59127800D01*
G37*
X72186200Y-61032800D02*
X71805200Y-61286800D01*
X71551200Y-61032800D01*
X71932200Y-60778800D01*
X72186200Y-61032800D01*
G36*
X72186200Y-61032800D02*
G01*
X71805200Y-61286800D01*
X71551200Y-61032800D01*
X71932200Y-60778800D01*
X72186200Y-61032800D01*
G37*
X72567200Y-61413800D02*
X72186200Y-61667800D01*
X71932200Y-61413800D01*
X72313200Y-61159800D01*
X72567200Y-61413800D01*
G36*
X72567200Y-61413800D02*
G01*
X72186200Y-61667800D01*
X71932200Y-61413800D01*
X72313200Y-61159800D01*
X72567200Y-61413800D01*
G37*
D11*
%TO.C,J8*%
X84980000Y-65930000D02*
X86360000Y-65930000D01*
X84980000Y-67310000D02*
X84980000Y-65930000D01*
X84980000Y-68580000D02*
X84980000Y-76310000D01*
X84980000Y-68580000D02*
X87740000Y-68580000D01*
X84980000Y-76310000D02*
X87740000Y-76310000D01*
X87740000Y-68580000D02*
X87740000Y-76310000D01*
%TO.C,J7*%
X84980000Y-48150000D02*
X86360000Y-48150000D01*
X84980000Y-49530000D02*
X84980000Y-48150000D01*
X84980000Y-50800000D02*
X84980000Y-58530000D01*
X84980000Y-50800000D02*
X87740000Y-50800000D01*
X84980000Y-58530000D02*
X87740000Y-58530000D01*
X87740000Y-50800000D02*
X87740000Y-58530000D01*
%TO.C,J6*%
X84980000Y-35450000D02*
X86360000Y-35450000D01*
X84980000Y-36830000D02*
X84980000Y-35450000D01*
X84980000Y-38100000D02*
X84980000Y-45830000D01*
X84980000Y-38100000D02*
X87740000Y-38100000D01*
X84980000Y-45830000D02*
X87740000Y-45830000D01*
X87740000Y-38100000D02*
X87740000Y-45830000D01*
%TO.C,J4*%
X38210000Y-66150000D02*
X36830000Y-66150000D01*
X38210000Y-64770000D02*
X38210000Y-66150000D01*
X38210000Y-63500000D02*
X38210000Y-55770000D01*
X38210000Y-63500000D02*
X35450000Y-63500000D01*
X38210000Y-55770000D02*
X35450000Y-55770000D01*
X35450000Y-63500000D02*
X35450000Y-55770000D01*
%TO.C,J3*%
X38210000Y-89010000D02*
X36830000Y-89010000D01*
X38210000Y-87630000D02*
X38210000Y-89010000D01*
X38210000Y-86360000D02*
X38210000Y-78630000D01*
X38210000Y-86360000D02*
X35450000Y-86360000D01*
X38210000Y-78630000D02*
X35450000Y-78630000D01*
X35450000Y-86360000D02*
X35450000Y-78630000D01*
%TO.C,J2*%
X87740000Y-33130000D02*
X86360000Y-33130000D01*
X87740000Y-31750000D02*
X87740000Y-33130000D01*
X87740000Y-30480000D02*
X87740000Y-27830000D01*
X87740000Y-30480000D02*
X84980000Y-30480000D01*
X87740000Y-27830000D02*
X84980000Y-27830000D01*
X84980000Y-30480000D02*
X84980000Y-27830000D01*
%TO.C,J1*%
X39480000Y-27830000D02*
X39480000Y-29210000D01*
X38100000Y-27830000D02*
X39480000Y-27830000D01*
X36830000Y-27830000D02*
X34180000Y-27830000D01*
X36830000Y-27830000D02*
X36830000Y-30590000D01*
X34180000Y-27830000D02*
X34180000Y-30590000D01*
X36830000Y-30590000D02*
X34180000Y-30590000D01*
%TD*%
M02*
