%TF.GenerationSoftware,KiCad,Pcbnew,9.0.2*%
%TF.CreationDate,2025-09-28T22:02:36+01:00*%
%TF.ProjectId,X_slip-ring,585f736c-6970-42d7-9269-6e672e6b6963,rev?*%
%TF.SameCoordinates,Original*%
%TF.FileFunction,Copper,L1,Top*%
%TF.FilePolarity,Positive*%
%FSLAX46Y46*%
G04 Gerber Fmt 4.6, Leading zero omitted, Abs format (unit mm)*
G04 Created by KiCad (PCBNEW 9.0.2) date 2025-09-28 22:02:36*
%MOMM*%
%LPD*%
G01*
G04 APERTURE LIST*
%TA.AperFunction,Conductor*%
%ADD10C,3.000000*%
%TD*%
%TA.AperFunction,ViaPad*%
%ADD11C,1.600000*%
%TD*%
G04 APERTURE END LIST*
D10*
%TO.N,4*%
X46500000Y0D02*
G75*
G02*
X-46500000Y0I-46500000J0D01*
G01*
X-46500000Y0D02*
G75*
G02*
X46500000Y0I46500000J0D01*
G01*
%TO.N,1*%
X34500000Y0D02*
G75*
G02*
X-34500000Y0I-34500000J0D01*
G01*
X-34500000Y0D02*
G75*
G02*
X34500000Y0I34500000J0D01*
G01*
%TO.N,6*%
X54500000Y0D02*
G75*
G02*
X-54500000Y0I-54500000J0D01*
G01*
X-54500000Y0D02*
G75*
G02*
X54500000Y0I54500000J0D01*
G01*
%TO.N,7*%
X58500000Y0D02*
G75*
G02*
X-58500000Y0I-58500000J0D01*
G01*
X-58500000Y0D02*
G75*
G02*
X58500000Y0I58500000J0D01*
G01*
%TO.N,8*%
X62500000Y0D02*
G75*
G02*
X-62500000Y0I-62500000J0D01*
G01*
X-62500000Y0D02*
G75*
G02*
X62500000Y0I62500000J0D01*
G01*
%TO.N,9*%
X66500000Y0D02*
G75*
G02*
X-66500000Y0I-66500000J0D01*
G01*
X-66500000Y0D02*
G75*
G02*
X66500000Y0I66500000J0D01*
G01*
%TO.N,2*%
X38500000Y0D02*
G75*
G02*
X-38500000Y0I-38500000J0D01*
G01*
X-38500000Y0D02*
G75*
G02*
X38500000Y0I38500000J0D01*
G01*
%TO.N,5*%
X50500000Y0D02*
G75*
G02*
X-50500000Y0I-50500000J0D01*
G01*
X-50500000Y0D02*
G75*
G02*
X50500000Y0I50500000J0D01*
G01*
%TO.N,3*%
X42500000Y0D02*
G75*
G02*
X-42500000Y0I-42500000J0D01*
G01*
X-42500000Y0D02*
G75*
G02*
X42500000Y0I42500000J0D01*
G01*
%TD*%
D11*
%TO.N,1*%
X-33531000Y0D03*
X0Y-33529000D03*
X0Y33500000D03*
X33531000Y0D03*
%TO.N,2*%
X0Y37500000D03*
X37531000Y0D03*
X0Y-37529000D03*
X-37531000Y0D03*
%TO.N,3*%
X41531000Y0D03*
X0Y-41529000D03*
X0Y41500000D03*
X-41531000Y0D03*
%TO.N,4*%
X0Y-45529000D03*
X-45531000Y0D03*
X0Y45500000D03*
X45531000Y0D03*
%TO.N,5*%
X-49531000Y0D03*
X49531000Y0D03*
X0Y-49529000D03*
X0Y49500000D03*
%TO.N,6*%
X53531000Y0D03*
X-53531000Y0D03*
X0Y53500000D03*
X0Y-53529000D03*
%TO.N,7*%
X57531000Y0D03*
X0Y57500000D03*
X-57531000Y0D03*
X0Y-57529000D03*
%TO.N,8*%
X-61531000Y0D03*
X0Y-61529000D03*
X61531000Y0D03*
X0Y61500000D03*
%TO.N,9*%
X65531000Y0D03*
X-65531000Y0D03*
X0Y-65529000D03*
X0Y65500000D03*
%TD*%
M02*
