M48
; DRILL file {KiCad 9.0.2} date 2025-09-28T22:13:39+0100
; FORMAT={-:-/ absolute / metric / decimal}
; #@! TF.CreationDate,2025-09-28T22:13:39+01:00
; #@! TF.GenerationSoftware,Kicad,Pcbnew,9.0.2
; #@! TF.FileFunction,Plated,1,2,PTH
FMAT,2
METRIC
; #@! TA.AperFunction,Plated,PTH,ViaDrill
T1C0.800
; #@! TA.AperFunction,Plated,PTH,ViaDrill
T2C1.200
%
G90
G05
T1
X-101.469Y0.0
X-97.469Y0.0
X-93.469Y0.0
X-89.469Y0.0
X-85.469Y0.0
X-81.469Y0.0
X-77.469Y0.0
X-73.469Y0.0
X-69.469Y0.0
X-65.531Y0.0
X-61.531Y0.0
X-57.531Y0.0
X-53.531Y0.0
X-49.531Y0.0
X-45.531Y0.0
X-41.531Y0.0
X-37.531Y0.0
X-33.531Y0.0
X0.0Y101.469
X0.0Y97.469
X0.0Y93.469
X0.0Y89.469
X0.0Y85.469
X0.0Y81.469
X0.0Y77.469
X0.0Y73.469
X0.0Y69.469
X0.0Y65.5
X0.0Y61.5
X0.0Y57.5
X0.0Y53.5
X0.0Y49.5
X0.0Y45.5
X0.0Y41.5
X0.0Y37.5
X0.0Y33.5
X0.0Y-33.529
X0.0Y-37.529
X0.0Y-41.529
X0.0Y-45.529
X0.0Y-49.529
X0.0Y-53.529
X0.0Y-57.529
X0.0Y-61.529
X0.0Y-65.529
X0.0Y-69.469
X0.0Y-73.469
X0.0Y-77.469
X0.0Y-81.469
X0.0Y-85.469
X0.0Y-89.469
X0.0Y-93.469
X0.0Y-97.469
X0.0Y-101.469
X33.531Y0.0
X37.531Y0.0
X41.531Y0.0
X45.531Y0.0
X49.531Y0.0
X53.531Y0.0
X57.531Y0.0
X61.531Y0.0
X65.531Y0.0
X69.535Y0.0
X73.535Y0.0
X77.535Y0.0
X81.535Y0.0
X85.535Y0.0
X89.535Y0.0
X93.535Y0.0
X97.535Y0.0
X101.535Y0.0
T2
X-72.445Y72.445
X-72.445Y-72.445
X-69.617Y69.617
X-69.617Y-69.617
X-66.788Y66.788
X-66.788Y-66.788
X-63.96Y63.96
X-63.96Y-63.96
X-61.132Y61.132
X-61.132Y-61.132
X-58.303Y58.303
X-58.303Y-58.303
X-55.475Y55.475
X-55.475Y-55.475
X-52.646Y52.646
X-52.646Y-52.646
X-49.818Y49.818
X-49.818Y-49.818
X-47.011Y47.011
X-47.011Y-47.011
X-44.183Y44.183
X-44.183Y-44.183
X-41.355Y41.355
X-41.355Y-41.355
X-38.526Y38.526
X-38.526Y-38.526
X-35.698Y35.698
X-35.698Y-35.698
X-32.869Y32.869
X-32.869Y-32.869
X-30.041Y30.041
X-30.041Y-30.041
X-27.212Y27.212
X-27.212Y-27.212
X-24.384Y24.384
X-24.384Y-24.384
X24.5Y24.373
X24.511Y-24.384
X27.329Y27.202
X27.339Y-27.212
X30.157Y30.03
X30.168Y-30.041
X32.986Y32.859
X32.996Y-32.869
X35.814Y35.687
X35.825Y-35.698
X38.642Y38.515
X38.653Y-38.526
X41.471Y41.344
X41.482Y-41.355
X44.299Y44.172
X44.31Y-44.183
X47.128Y47.001
X47.138Y-47.011
X49.934Y49.807
X49.945Y-49.818
X52.763Y52.636
X52.773Y-52.646
X55.591Y55.464
X55.602Y-55.475
X58.419Y58.292
X58.43Y-58.303
X61.248Y61.121
X61.259Y-61.132
X64.076Y63.949
X64.087Y-63.96
X66.905Y66.778
X66.915Y-66.788
X69.733Y69.606
X69.744Y-69.617
X72.562Y72.435
X72.572Y-72.445
M30
