%TF.GenerationSoftware,KiCad,Pcbnew,9.0.2*%
%TF.CreationDate,2025-09-28T22:14:33+01:00*%
%TF.ProjectId,XY_slip-ring,58595f73-6c69-4702-9d72-696e672e6b69,rev?*%
%TF.SameCoordinates,Original*%
%TF.FileFunction,Copper,L1,Top*%
%TF.FilePolarity,Positive*%
%FSLAX46Y46*%
G04 Gerber Fmt 4.6, Leading zero omitted, Abs format (unit mm)*
G04 Created by KiCad (PCBNEW 9.0.2) date 2025-09-28 22:14:33*
%MOMM*%
%LPD*%
G01*
G04 APERTURE LIST*
%TA.AperFunction,Conductor*%
%ADD10C,3.000000*%
%TD*%
%TA.AperFunction,ViaPad*%
%ADD11C,1.600000*%
%TD*%
G04 APERTURE END LIST*
D10*
%TO.N,13*%
X82500000Y0D02*
G75*
G02*
X-82500000Y0I-82500000J0D01*
G01*
X-82500000Y0D02*
G75*
G02*
X82500000Y0I82500000J0D01*
G01*
%TO.N,6*%
X54500000Y0D02*
G75*
G02*
X-54500000Y0I-54500000J0D01*
G01*
X-54500000Y0D02*
G75*
G02*
X54500000Y0I54500000J0D01*
G01*
%TO.N,2*%
X38500000Y0D02*
G75*
G02*
X-38500000Y0I-38500000J0D01*
G01*
X-38500000Y0D02*
G75*
G02*
X38500000Y0I38500000J0D01*
G01*
%TO.N,10*%
X70500000Y0D02*
G75*
G02*
X-70500000Y0I-70500000J0D01*
G01*
X-70500000Y0D02*
G75*
G02*
X70500000Y0I70500000J0D01*
G01*
%TO.N,12*%
X78500000Y0D02*
G75*
G02*
X-78500000Y0I-78500000J0D01*
G01*
X-78500000Y0D02*
G75*
G02*
X78500000Y0I78500000J0D01*
G01*
%TO.N,1*%
X34500000Y0D02*
G75*
G02*
X-34500000Y0I-34500000J0D01*
G01*
X-34500000Y0D02*
G75*
G02*
X34500000Y0I34500000J0D01*
G01*
%TO.N,15*%
X90500000Y0D02*
G75*
G02*
X-90500000Y0I-90500000J0D01*
G01*
X-90500000Y0D02*
G75*
G02*
X90500000Y0I90500000J0D01*
G01*
%TO.N,9*%
X66500000Y0D02*
G75*
G02*
X-66500000Y0I-66500000J0D01*
G01*
X-66500000Y0D02*
G75*
G02*
X66500000Y0I66500000J0D01*
G01*
%TO.N,8*%
X62500000Y0D02*
G75*
G02*
X-62500000Y0I-62500000J0D01*
G01*
X-62500000Y0D02*
G75*
G02*
X62500000Y0I62500000J0D01*
G01*
%TO.N,18*%
X102500000Y0D02*
G75*
G02*
X-102500000Y0I-102500000J0D01*
G01*
X-102500000Y0D02*
G75*
G02*
X102500000Y0I102500000J0D01*
G01*
%TO.N,16*%
X94500000Y0D02*
G75*
G02*
X-94500000Y0I-94500000J0D01*
G01*
X-94500000Y0D02*
G75*
G02*
X94500000Y0I94500000J0D01*
G01*
%TO.N,7*%
X58500000Y0D02*
G75*
G02*
X-58500000Y0I-58500000J0D01*
G01*
X-58500000Y0D02*
G75*
G02*
X58500000Y0I58500000J0D01*
G01*
%TO.N,17*%
X98500000Y0D02*
G75*
G02*
X-98500000Y0I-98500000J0D01*
G01*
X-98500000Y0D02*
G75*
G02*
X98500000Y0I98500000J0D01*
G01*
%TO.N,3*%
X42500000Y0D02*
G75*
G02*
X-42500000Y0I-42500000J0D01*
G01*
X-42500000Y0D02*
G75*
G02*
X42500000Y0I42500000J0D01*
G01*
%TO.N,11*%
X74500000Y0D02*
G75*
G02*
X-74500000Y0I-74500000J0D01*
G01*
X-74500000Y0D02*
G75*
G02*
X74500000Y0I74500000J0D01*
G01*
%TO.N,4*%
X46500000Y0D02*
G75*
G02*
X-46500000Y0I-46500000J0D01*
G01*
X-46500000Y0D02*
G75*
G02*
X46500000Y0I46500000J0D01*
G01*
%TO.N,5*%
X50500000Y0D02*
G75*
G02*
X-50500000Y0I-50500000J0D01*
G01*
X-50500000Y0D02*
G75*
G02*
X50500000Y0I50500000J0D01*
G01*
%TO.N,14*%
X86500000Y0D02*
G75*
G02*
X-86500000Y0I-86500000J0D01*
G01*
X-86500000Y0D02*
G75*
G02*
X86500000Y0I86500000J0D01*
G01*
%TD*%
D11*
%TO.N,8*%
X0Y61500000D03*
X61531000Y0D03*
X0Y-61529000D03*
X-61531000Y0D03*
%TO.N,6*%
X-53531000Y0D03*
X53531000Y0D03*
X0Y-53529000D03*
X0Y53500000D03*
%TO.N,7*%
X0Y57500000D03*
X-57531000Y0D03*
X57531000Y0D03*
X0Y-57529000D03*
%TO.N,5*%
X49531000Y0D03*
X0Y-49529000D03*
X0Y49500000D03*
X-49531000Y0D03*
%TO.N,4*%
X0Y45500000D03*
X-45531000Y0D03*
X45531000Y0D03*
X0Y-45529000D03*
%TO.N,1*%
X0Y-33529000D03*
X33531000Y0D03*
X0Y33500000D03*
X-33531000Y0D03*
%TO.N,2*%
X0Y37500000D03*
X37531000Y0D03*
X0Y-37529000D03*
X-37531000Y0D03*
%TO.N,3*%
X41531000Y0D03*
X-41531000Y0D03*
X0Y-41529000D03*
X0Y41500000D03*
%TO.N,9*%
X0Y-65529000D03*
X-65531000Y0D03*
X65531000Y0D03*
X0Y65500000D03*
%TO.N,10*%
X0Y-69469000D03*
X-69469000Y0D03*
X69535000Y0D03*
X0Y69469000D03*
%TO.N,11*%
X0Y73469000D03*
X-73469000Y0D03*
X73535000Y0D03*
X0Y-73469000D03*
%TO.N,12*%
X77535000Y0D03*
X0Y-77469000D03*
X0Y77469000D03*
X-77469000Y0D03*
%TO.N,13*%
X81535000Y0D03*
X0Y81468999D03*
X0Y-81468999D03*
X-81468999Y0D03*
%TO.N,15*%
X0Y89469001D03*
X89535000Y0D03*
X-89469001Y0D03*
X0Y-89469001D03*
%TO.N,14*%
X0Y85468999D03*
X-85468999Y0D03*
X85535000Y0D03*
X0Y-85468999D03*
%TO.N,16*%
X0Y-93469000D03*
X0Y93469000D03*
X-93469000Y0D03*
X93535000Y0D03*
%TO.N,17*%
X97535000Y0D03*
X0Y97469000D03*
X-97469000Y0D03*
X0Y-97469000D03*
%TO.N,18*%
X101535000Y0D03*
X0Y-101469000D03*
X0Y101469000D03*
X-101469000Y0D03*
%TD*%
M02*
